mtllib materials.mtl
v 0.536728 -1.226599 0.1755037
v 0.536728 -1.226599 0.6555037
v 0.536728 1.013401 0.6555037
v 0.536728 1.013401 0.1755037
v -0.6332721 -1.226599 0.1755035
v -0.6332721 1.013401 0.1755035
v -0.6332721 1.013401 0.6555036
v -0.6332721 -1.226599 0.6555036
v -0.6332724 -1.216599 -0.3144962
v 0.5367283 -1.216599 -0.3144964
v 0.529617 -0.1462804 -0.3097048
v -0.6403841 -0.1462804 -0.3097047
v -0.6332723 -1.216599 0.1755039
v -0.640384 -0.1462804 0.1802956
v 0.529617 -0.1462804 0.1802955
v 0.5367283 -1.216599 0.1755038
v 0.5367281 1.003401 0.06550368
v 0.5367281 1.003401 0.6555037
v 0.5367281 1.113401 0.6555037
v 0.5367281 1.113401 0.06550368
v -0.6332719 1.003401 0.06550368
v -0.6332719 1.113401 0.06550368
v -0.6332719 1.113401 0.6555037
v -0.6332719 1.003401 0.6555037
v 0.4967281 -0.05659854 0.1755037
v 0.4967281 0.9834014 0.1755036
v 0.4967281 0.9834017 0.1655036
v 0.4967281 -0.05659866 0.1655037
v -0.603272 -0.05659854 0.1755037
v -0.603272 -0.05659866 0.1655037
v -0.603272 0.9834017 0.1655036
v -0.603272 0.9834014 0.1755036
v 0.3353403 -0.1365986 -0.09949632
v 0.3042281 -0.1365986 -0.06655399
v 0.2617281 -0.1365986 -0.05449629
v 0.2192281 -0.1365986 -0.06655398
v 0.1881159 -0.1365986 -0.09949626
v 0.176728 -0.1365986 -0.1444963
v 0.1881159 -0.1365986 -0.1894963
v 0.2192281 -0.1365986 -0.2224386
v 0.2617281 -0.1365986 -0.2344963
v 0.3042281 -0.1365986 -0.2224386
v 0.3353402 -0.1365986 -0.1894963
v 0.3467281 -0.1365986 -0.1444963
v 0.2867281 -0.02659857 -0.1444963
v 0.2840486 -0.02659857 -0.1544963
v 0.2840486 -0.1365986 -0.1544963
v 0.2867281 -0.1365986 -0.1444963
v 0.2767281 -0.02659857 -0.1618168
v 0.2767281 -0.1365986 -0.1618168
v 0.2667281 -0.02659857 -0.1644963
v 0.2667281 -0.1365986 -0.1644963
v 0.2567281 -0.02659857 -0.1618168
v 0.2567281 -0.1365986 -0.1618168
v 0.2494076 -0.02659857 -0.1544963
v 0.2494076 -0.1365986 -0.1544963
v 0.2467281 -0.02659857 -0.1444963
v 0.2467281 -0.1365986 -0.1444963
v 0.2494076 -0.02659857 -0.1344963
v 0.2494076 -0.1365986 -0.1344963
v 0.2567281 -0.02659857 -0.1271758
v 0.2567281 -0.1365986 -0.1271758
v 0.2667281 -0.02659857 -0.1244963
v 0.2667281 -0.1365986 -0.1244963
v 0.2767281 -0.02659857 -0.1271758
v 0.2767281 -0.1365986 -0.1271758
v 0.2840486 -0.02659857 -0.1344963
v 0.2840486 -0.1365986 -0.1344963
v 0.2673358 0.04340136 -0.145104
v 0.2554879 0.04098904 -0.1382636
v 0.253655 0.04098904 -0.145104
v 0.2604954 0.04098904 -0.1332561
v 0.2673358 0.04098904 -0.1314232
v 0.2741762 0.04098904 -0.1332561
v 0.2791837 0.04098904 -0.1382636
v 0.2810166 0.04098904 -0.145104
v 0.2791837 0.04098904 -0.1519444
v 0.2741762 0.04098904 -0.1569519
v 0.2673358 0.04098904 -0.1587848
v 0.2604954 0.04098904 -0.1569519
v 0.2554879 0.04098904 -0.1519444
v 0.245069 0.03404319 -0.1322483
v 0.2416243 0.03404319 -0.145104
v 0.25448 0.03404319 -0.1228372
v 0.2673358 0.03404319 -0.1193925
v 0.2801915 0.03404319 -0.1228372
v 0.2896026 0.03404319 -0.1322483
v 0.2930473 0.03404319 -0.145104
v 0.2896026 0.03404319 -0.1579598
v 0.2801915 0.03404319 -0.1673708
v 0.2673358 0.03404319 -0.1708155
v 0.25448 0.03404319 -0.1673708
v 0.2450689 0.03404319 -0.1579598
v 0.2373358 0.02340138 -0.1277835
v 0.2326947 0.02340138 -0.145104
v 0.2500153 0.02340138 -0.115104
v 0.2673358 0.02340138 -0.110463
v 0.2846563 0.02340138 -0.115104
v 0.2973358 0.02340138 -0.1277835
v 0.3019768 0.02340138 -0.145104
v 0.2973358 0.02340138 -0.1624245
v 0.2846563 0.02340138 -0.175104
v 0.2673358 0.02340138 -0.179745
v 0.2500153 0.02340138 -0.175104
v 0.2373358 0.02340138 -0.1624245
v 0.233221 0.01034737 -0.1254078
v 0.2279435 0.01034737 -0.145104
v 0.2476396 0.01034737 -0.1109893
v 0.2673358 0.01034737 -0.1057117
v 0.2870319 0.01034737 -0.1109893
v 0.3014505 0.01034737 -0.1254078
v 0.3067281 0.01034737 -0.145104
v 0.3014505 0.01034737 -0.1648002
v 0.2870319 0.01034737 -0.1792188
v 0.2673358 0.01034737 -0.1844963
v 0.2476396 0.01034737 -0.1792188
v 0.233221 0.01034737 -0.1648002
v 0.233221 -0.003544569 -0.1254079
v 0.2279435 -0.003544569 -0.145104
v 0.2476396 -0.003544569 -0.1109893
v 0.2673358 -0.003544569 -0.1057117
v 0.2870319 -0.003544569 -0.1109893
v 0.3014505 -0.003544569 -0.1254078
v 0.3067281 -0.003544569 -0.145104
v 0.3014505 -0.003544569 -0.1648002
v 0.2870319 -0.003544569 -0.1792187
v 0.2673358 -0.003544569 -0.1844963
v 0.2476396 -0.003544569 -0.1792187
v 0.233221 -0.003544569 -0.1648002
v 0.2373358 -0.01659858 -0.1277835
v 0.2326947 -0.01659858 -0.145104
v 0.2500153 -0.01659858 -0.115104
v 0.2673358 -0.01659858 -0.110463
v 0.2846563 -0.01659858 -0.115104
v 0.2973358 -0.01659858 -0.1277835
v 0.3019768 -0.01659858 -0.145104
v 0.2973358 -0.01659858 -0.1624245
v 0.2846563 -0.01659858 -0.175104
v 0.2673358 -0.01659858 -0.179745
v 0.2500153 -0.01659858 -0.175104
v 0.2373358 -0.01659858 -0.1624245
v 0.245069 -0.0272404 -0.1322483
v 0.2416243 -0.0272404 -0.145104
v 0.25448 -0.0272404 -0.1228372
v 0.2673358 -0.0272404 -0.1193925
v 0.2801915 -0.0272404 -0.1228372
v 0.2896026 -0.0272404 -0.1322483
v 0.2930473 -0.0272404 -0.145104
v 0.2896026 -0.0272404 -0.1579598
v 0.2801915 -0.0272404 -0.1673708
v 0.2673358 -0.0272404 -0.1708155
v 0.25448 -0.0272404 -0.1673708
v 0.2450689 -0.0272404 -0.1579598
v 0.2554879 -0.03418636 -0.1382636
v 0.253655 -0.03418636 -0.145104
v 0.2604954 -0.03418636 -0.1332561
v 0.2673358 -0.03418636 -0.1314232
v 0.2741762 -0.03418636 -0.1332561
v 0.2791837 -0.03418636 -0.1382636
v 0.2810166 -0.03418636 -0.145104
v 0.2791837 -0.03418636 -0.1519444
v 0.2741762 -0.03418636 -0.1569519
v 0.2673358 -0.03418636 -0.1587848
v 0.2604954 -0.03418636 -0.1569519
v 0.2554879 -0.03418636 -0.1519444
v 0.2673358 -0.03659856 -0.145104
v -0.2484807 -0.1381429 -0.08713894
v -0.2284807 -0.1381429 -0.09249792
v -0.2232719 -0.2065986 -0.0998553
v -0.2432719 -0.2065986 -0.09449632
v -0.2138397 -0.1381429 -0.1071389
v -0.2086309 -0.2065986 -0.1144963
v -0.2084807 -0.1381429 -0.1271389
v -0.2032719 -0.2065986 -0.1344963
v -0.2138397 -0.1381429 -0.1471389
v -0.2086309 -0.2065986 -0.1544963
v -0.2284807 -0.1381429 -0.1617799
v -0.2232719 -0.2065986 -0.1691373
v -0.2484807 -0.1381429 -0.1671389
v -0.2432719 -0.2065986 -0.1744963
v -0.2684807 -0.1381429 -0.1617799
v -0.2632719 -0.2065986 -0.1691373
v -0.2831217 -0.1381429 -0.1471389
v -0.2779129 -0.2065986 -0.1544963
v -0.2884807 -0.1381429 -0.1271389
v -0.2832719 -0.2065986 -0.1344963
v -0.2831218 -0.1381429 -0.1071389
v -0.2779129 -0.2065986 -0.1144963
v -0.2684807 -0.1381429 -0.09249792
v -0.2632719 -0.2065986 -0.0998553
v -0.3332719 -0.3865986 -0.3244963
v -0.3332719 -0.3865986 -0.3044963
v -0.3332719 -0.3065985 -0.3044963
v -0.3332719 -0.3065985 -0.3244963
v -0.3632719 -0.3865986 -0.3244963
v -0.3632719 -0.3065985 -0.3244963
v -0.3632719 -0.3065985 -0.3044963
v -0.3632719 -0.3865986 -0.3044963
vn 1 0 1.748456E-07
vn -1 0 -1.748456E-07
vn 0 -1 0
vn 0 1 0
vn 1.748456E-07 0 -1
vn -1.748456E-07 0 1
vn -1.192084E-07 0.004476725 -0.9999901
vn 1.446807E-07 -0.004476901 0.9999901
vn 0 -1 0
vn 0 1 0
vn -0.9999781 -0.006644296 1.339873E-07
vn 0.9999781 0.006643963 -1.799537E-07
vn 1 0 0
vn -1 0 0
vn 0 -1 -1.748456E-07
vn 0 1 1.748456E-07
vn 0 1.748456E-07 -1
vn 0 -1.748456E-07 1
vn 1 0 0
vn -1 0 0
vn 0 1.192093E-07 1
vn 0 -1.192093E-07 -1
vn 0 -1 1.192093E-07
vn 0 1 -1.192093E-07
vn 1.748456E-07 1 0
vn -1.748456E-07 -1 0
vn 0.9659258 -8.279297E-08 -0.2588195
vn 0.707106 1.920983E-08 -0.7071077
vn 0.2588191 -2.181845E-09 -0.9659258
vn -0.258819 -1.520789E-08 -0.9659259
vn -0.7071062 -5.987361E-08 -0.7071075
vn -0.9659258 -1.148849E-07 -0.2588196
vn -0.9659258 -1.163875E-07 0.2588194
vn -0.7071059 1.438689E-08 0.7071078
vn -0.2588191 -2.30158E-08 0.9659258
vn 0.258819 -3.010143E-08 0.9659259
vn 0.7071065 -1.920087E-08 0.7071071
vn 0.9659258 -1.107314E-07 0.2588197
vn 0 1 0
vn 0 -1 0
vn 0 1 0
vn 0 1 0
vn 0 1 0
vn 0 1 0
vn 0 1 0
vn 0 1 0
vn 0 1 0
vn 0 1 0
vn 0 1 0
vn 0 1 0
vn 0 1 0
vn 0 1 0
vn -0.3420202 0.9396926 0
vn -0.2961981 0.9396926 0.1710101
vn -0.1710101 0.9396926 0.2961982
vn 1.495018E-08 0.9396926 0.3420202
vn 0.1710101 0.9396926 0.2961981
vn 0.2961981 0.9396926 0.1710101
vn 0.3420202 0.9396926 -2.990035E-08
vn 0.2961981 0.9396926 -0.1710101
vn 0.17101 0.9396926 -0.2961982
vn -4.078549E-09 0.9396926 -0.3420202
vn -0.17101 0.9396926 -0.2961982
vn -0.2961982 0.9396926 -0.17101
vn -0.6427876 0.7660444 0
vn -0.5566704 0.7660444 0.3213938
vn -0.3213938 0.7660444 0.5566704
vn 2.809714E-08 0.7660444 0.6427876
vn 0.3213938 0.7660444 0.5566704
vn 0.5566704 0.7660444 0.3213938
vn 0.6427876 0.7660444 -5.619428E-08
vn 0.5566703 0.7660444 -0.3213939
vn 0.3213938 0.7660444 -0.5566704
vn -7.665165E-09 0.7660444 -0.6427876
vn -0.3213938 0.7660444 -0.5566704
vn -0.5566705 0.7660444 -0.3213937
vn -0.8660254 0.4999999 0
vn -0.75 0.4999999 0.4330127
vn -0.4330127 0.4999999 0.7500001
vn 3.785517E-08 0.4999999 0.8660254
vn 0.4330128 0.4999999 0.75
vn 0.75 0.4999999 0.4330128
vn 0.8660254 0.4999999 -7.571035E-08
vn 0.7499999 0.4999999 -0.4330128
vn 0.4330126 0.4999999 -0.7500001
vn -1.032725E-08 0.4999999 -0.8660254
vn -0.4330126 0.4999999 -0.7500001
vn -0.7500002 0.4999999 -0.4330125
vn -0.9848078 0.1736481 0
vn -0.8528686 0.1736481 0.4924039
vn -0.4924039 0.1736481 0.8528686
vn 4.304732E-08 0.1736481 0.9848078
vn 0.492404 0.1736481 0.8528686
vn 0.8528686 0.1736481 0.492404
vn 0.9848078 0.1736481 -8.609463E-08
vn 0.8528684 0.1736481 -0.4924041
vn 0.4924038 0.1736481 -0.8528686
vn -1.174372E-08 0.1736481 -0.9848078
vn -0.4924038 0.1736481 -0.8528686
vn -0.8528687 0.1736481 -0.4924037
vn -0.9848077 -0.1736482 0
vn -0.8528686 -0.1736482 0.4924039
vn -0.4924039 -0.1736482 0.8528686
vn 4.304731E-08 -0.1736482 0.9848077
vn 0.492404 -0.1736482 0.8528686
vn 0.8528686 -0.1736482 0.492404
vn 0.9848077 -0.1736482 -8.609462E-08
vn 0.8528684 -0.1736482 -0.4924041
vn 0.4924038 -0.1736482 -0.8528686
vn -1.174371E-08 -0.1736482 -0.9848077
vn -0.4924038 -0.1736482 -0.8528686
vn -0.8528686 -0.1736482 -0.4924036
vn -0.8660254 -0.5000001 0
vn -0.75 -0.5000001 0.4330127
vn -0.4330127 -0.5000001 0.75
vn 3.785517E-08 -0.5000001 0.8660254
vn 0.4330128 -0.5000001 0.75
vn 0.75 -0.5000001 0.4330128
vn 0.8660254 -0.5000001 -7.571035E-08
vn 0.7499999 -0.5000001 -0.4330128
vn 0.4330126 -0.5000001 -0.75
vn -1.032725E-08 -0.5000001 -0.8660254
vn -0.4330126 -0.5000001 -0.75
vn -0.7500001 -0.5000001 -0.4330125
vn -0.6427876 -0.7660444 0
vn -0.5566704 -0.7660444 0.3213938
vn -0.3213938 -0.7660444 0.5566704
vn 2.809714E-08 -0.7660444 0.6427876
vn 0.3213938 -0.7660444 0.5566704
vn 0.5566704 -0.7660444 0.3213938
vn 0.6427876 -0.7660444 -5.619428E-08
vn 0.5566703 -0.7660444 -0.3213939
vn 0.3213938 -0.7660444 -0.5566704
vn -7.665165E-09 -0.7660444 -0.6427876
vn -0.3213938 -0.7660444 -0.5566704
vn -0.5566705 -0.7660444 -0.3213937
vn -0.34202 -0.9396927 0
vn -0.296198 -0.9396927 0.17101
vn -0.17101 -0.9396927 0.296198
vn 1.495017E-08 -0.9396927 0.34202
vn 0.17101 -0.9396927 0.296198
vn 0.296198 -0.9396927 0.17101
vn 0.34202 -0.9396927 -2.990034E-08
vn 0.296198 -0.9396927 -0.1710101
vn 0.17101 -0.9396927 -0.296198
vn -4.078548E-09 -0.9396927 -0.34202
vn -0.17101 -0.9396927 -0.296198
vn -0.2961981 -0.9396927 -0.1710099
vn 0.2579081 -0.08382481 0.9625263
vn 0.7069323 -0.02218825 0.706933
vn 0.9649196 0.04563293 0.2585492
vn 0.9610063 0.1007984 -0.2575006
vn 0.7012242 0.1287214 -0.7012241
vn 0.2568671 0.1225767 -0.9586419
vn -0.2579078 0.08382478 -0.9625263
vn -0.7069331 0.02218821 -0.7069324
vn -0.9649194 -0.04563276 -0.25855
vn -0.9610063 -0.1007984 0.2575006
vn -0.7012242 -0.1287214 0.7012242
vn -0.2568674 -0.1225767 0.9586418
vn 1.748456E-07 1 3.057097E-14
vn -1.748456E-07 -1 -3.057097E-14
vn 1 0 0
vn -1 0 0
vn 0 -1 0
vn 0 1 0
vn 0 0 -1
vn 0 0 1
usemtl mat8
f 4//1 3//1 2//1 1//1
f 8//2 7//2 6//2 5//2
f 2//3 8//3 5//3 1//3
f 6//4 7//4 3//4 4//4
f 5//5 6//5 4//5 1//5
f 3//6 7//6 8//6 2//6
f 12//7 11//7 10//7 9//7
f 16//8 15//8 14//8 13//8
f 10//9 16//9 13//9 9//9
f 14//10 15//10 11//10 12//10
f 13//11 14//11 12//11 9//11
f 11//12 15//12 16//12 10//12
f 20//13 19//13 18//13 17//13
f 24//14 23//14 22//14 21//14
f 18//15 24//15 21//15 17//15
f 22//16 23//16 19//16 20//16
f 21//17 22//17 20//17 17//17
f 19//18 23//18 24//18 18//18
usemtl mat23
f 28//19 27//19 26//19 25//19
f 32//20 31//20 30//20 29//20
f 26//21 32//21 29//21 25//21
f 30//22 31//22 27//22 28//22
f 29//23 30//23 28//23 25//23
f 27//24 31//24 32//24 26//24
f 44//25 43//25 42//25 41//25 40//25 39//25 38//25 37//25 36//25 35//25 34//25 33//25
f 33//26 34//26 35//26 36//26 37//26 38//26 39//26 40//26 41//26 42//26 43//26 44//26
f 48//27 47//27 46//27 45//27
f 47//28 50//28 49//28 46//28
f 50//29 52//29 51//29 49//29
f 52//30 54//30 53//30 51//30
f 54//31 56//31 55//31 53//31
f 56//32 58//32 57//32 55//32
f 58//33 60//33 59//33 57//33
f 60//34 62//34 61//34 59//34
f 62//35 64//35 63//35 61//35
f 64//36 66//36 65//36 63//36
f 66//37 68//37 67//37 65//37
f 68//38 48//38 45//38 67//38
f 45//39 46//39 49//39 51//39 53//39 55//39 57//39 59//39 61//39 63//39 65//39 67//39
f 68//40 66//40 64//40 62//40 60//40 58//40 56//40 54//40 52//40 50//40 47//40 48//40
usemtl mat14
f 71//41 70//41 69//41
f 70//42 72//42 69//42
f 72//43 73//43 69//43
f 73//44 74//44 69//44
f 74//45 75//45 69//45
f 75//46 76//46 69//46
f 76//47 77//47 69//47
f 77//48 78//48 69//48
f 78//49 79//49 69//49
f 79//50 80//50 69//50
f 80//51 81//51 69//51
f 81//52 71//52 69//52
f 83//53 82//53 70//53 71//53
f 82//54 84//54 72//54 70//54
f 84//55 85//55 73//55 72//55
f 85//56 86//56 74//56 73//56
f 86//57 87//57 75//57 74//57
f 87//58 88//58 76//58 75//58
f 88//59 89//59 77//59 76//59
f 89//60 90//60 78//60 77//60
f 90//61 91//61 79//61 78//61
f 91//62 92//62 80//62 79//62
f 92//63 93//63 81//63 80//63
f 93//64 83//64 71//64 81//64
f 95//65 94//65 82//65 83//65
f 94//66 96//66 84//66 82//66
f 96//67 97//67 85//67 84//67
f 97//68 98//68 86//68 85//68
f 98//69 99//69 87//69 86//69
f 99//70 100//70 88//70 87//70
f 100//71 101//71 89//71 88//71
f 101//72 102//72 90//72 89//72
f 102//73 103//73 91//73 90//73
f 103//74 104//74 92//74 91//74
f 104//75 105//75 93//75 92//75
f 105//76 95//76 83//76 93//76
f 107//77 106//77 94//77 95//77
f 106//78 108//78 96//78 94//78
f 108//79 109//79 97//79 96//79
f 109//80 110//80 98//80 97//80
f 110//81 111//81 99//81 98//81
f 111//82 112//82 100//82 99//82
f 112//83 113//83 101//83 100//83
f 113//84 114//84 102//84 101//84
f 114//85 115//85 103//85 102//85
f 115//86 116//86 104//86 103//86
f 116//87 117//87 105//87 104//87
f 117//88 107//88 95//88 105//88
f 119//89 118//89 106//89 107//89
f 118//90 120//90 108//90 106//90
f 120//91 121//91 109//91 108//91
f 121//92 122//92 110//92 109//92
f 122//93 123//93 111//93 110//93
f 123//94 124//94 112//94 111//94
f 124//95 125//95 113//95 112//95
f 125//96 126//96 114//96 113//96
f 126//97 127//97 115//97 114//97
f 127//98 128//98 116//98 115//98
f 128//99 129//99 117//99 116//99
f 129//100 119//100 107//100 117//100
f 131//101 130//101 118//101 119//101
f 130//102 132//102 120//102 118//102
f 132//103 133//103 121//103 120//103
f 133//104 134//104 122//104 121//104
f 134//105 135//105 123//105 122//105
f 135//106 136//106 124//106 123//106
f 136//107 137//107 125//107 124//107
f 137//108 138//108 126//108 125//108
f 138//109 139//109 127//109 126//109
f 139//110 140//110 128//110 127//110
f 140//111 141//111 129//111 128//111
f 141//112 131//112 119//112 129//112
f 143//113 142//113 130//113 131//113
f 142//114 144//114 132//114 130//114
f 144//115 145//115 133//115 132//115
f 145//116 146//116 134//116 133//116
f 146//117 147//117 135//117 134//117
f 147//118 148//118 136//118 135//118
f 148//119 149//119 137//119 136//119
f 149//120 150//120 138//120 137//120
f 150//121 151//121 139//121 138//121
f 151//122 152//122 140//122 139//122
f 152//123 153//123 141//123 140//123
f 153//124 143//124 131//124 141//124
f 155//125 154//125 142//125 143//125
f 154//126 156//126 144//126 142//126
f 156//127 157//127 145//127 144//127
f 157//128 158//128 146//128 145//128
f 158//129 159//129 147//129 146//129
f 159//130 160//130 148//130 147//130
f 160//131 161//131 149//131 148//131
f 161//132 162//132 150//132 149//132
f 162//133 163//133 151//133 150//133
f 163//134 164//134 152//134 151//134
f 164//135 165//135 153//135 152//135
f 165//136 155//136 143//136 153//136
f 166//137 154//137 155//137
f 166//138 156//138 154//138
f 166//139 157//139 156//139
f 166//140 158//140 157//140
f 166//141 159//141 158//141
f 166//142 160//142 159//142
f 166//143 161//143 160//143
f 166//144 162//144 161//144
f 166//145 163//145 162//145
f 166//146 164//146 163//146
f 166//147 165//147 164//147
f 166//148 155//148 165//148
usemtl mat4
f 170//149 169//149 168//149 167//149
f 169//150 172//150 171//150 168//150
f 172//151 174//151 173//151 171//151
f 174//152 176//152 175//152 173//152
f 176//153 178//153 177//153 175//153
f 178//154 180//154 179//154 177//154
f 180//155 182//155 181//155 179//155
f 182//156 184//156 183//156 181//156
f 184//157 186//157 185//157 183//157
f 186//158 188//158 187//158 185//158
f 188//159 190//159 189//159 187//159
f 190//160 170//160 167//160 189//160
f 167//161 168//161 171//161 173//161 175//161 177//161 179//161 181//161 183//161 185//161 187//161 189//161
f 190//162 188//162 186//162 184//162 182//162 180//162 178//162 176//162 174//162 172//162 169//162 170//162
usemtl mat17
f 194//163 193//163 192//163 191//163
f 198//164 197//164 196//164 195//164
f 192//165 198//165 195//165 191//165
f 196//166 197//166 193//166 194//166
f 195//167 196//167 194//167 191//167
f 193//168 197//168 198//168 192//168
